<svg width="18" height="18" viewBox="0 0 18 18" fill="none" xmlns="http://www.w3.org/2000/svg">
<g clip-path="url(#clip0_583_479)">
<path d="M2.25 3H15.75V4.5H2.25V3ZM2.25 8.25H6.75L6.375 9.75H2.25V8.25ZM2.25 13.5H7.5L9 15H2.25V13.5Z" fill="#1F1F1F"/>
<g clip-path="url(#clip1_583_479)">
<path d="M11.8438 5.5625C14.483 5.5625 16.625 7.7045 16.625 10.3438C16.625 12.983 14.483 15.125 11.8438 15.125C9.2045 15.125 7.0625 12.983 7.0625 10.3438C7.0625 7.7045 9.2045 5.5625 11.8438 5.5625ZM11.8438 14.0625C13.8981 14.0625 15.5625 12.3981 15.5625 10.3438C15.5625 8.28887 13.8981 6.625 11.8438 6.625C9.78887 6.625 8.125 8.28887 8.125 10.3438C8.125 12.3981 9.78887 14.0625 11.8438 14.0625ZM16.3514 14.1002L17.8543 15.6026L17.1026 16.3543L15.6002 14.8514L16.3514 14.1002V14.1002Z" fill="#1F1F1F"/>
</g>
</g>
<defs>
<clipPath id="clip0_583_479">
<rect width="18" height="18" fill="white"/>
</clipPath>
<clipPath id="clip1_583_479">
<rect width="12.75" height="12.75" fill="white" transform="translate(6 4.5)"/>
</clipPath>
</defs>
</svg>
