<svg width="158" height="20" viewBox="0 0 158 20" fill="none" xmlns="http://www.w3.org/2000/svg">
<g clip-path="url(#clip0_67_125)">
<path d="M20.2378 1.63C18.2987 0.533453 15.5566 0 11.8568 0C3.54713 0 0 2.94782 0 9.859V9.88075V9.89259C0 16.8097 3.54514 19.7575 11.8568 19.7575C15.5566 19.7575 18.2987 19.2241 20.2378 18.1275C22.4546 16.8749 23.5669 14.915 23.6323 12.143H18.6834C18.5208 15.3417 15.3147 15.7902 11.8588 15.7902C7.22312 15.7902 4.8696 14.8794 4.8696 9.89853V9.86097C4.8696 4.88012 7.22312 3.96928 11.8588 3.96928C15.3167 3.96928 18.5228 4.41778 18.6834 7.61653H23.6323C23.5669 4.84453 22.4565 2.88657 20.2378 1.63197V1.63Z" fill="#1F1F1F"/>
<path d="M78.515 19.2023V0.555176H74.161V7.85359H60.6128V0.555176H56.2588V19.2023H60.6128V11.7419H74.161V19.2023H78.515Z" fill="#1F1F1F"/>
<path d="M129.86 4.44347V0.555176H110.352V19.2023H129.86V15.3141H114.706V11.5186H127.383V8.20134H114.706V4.44347H129.86Z" fill="#1F1F1F"/>
<path d="M106.115 0.555176H82.752V4.44347H92.2575V19.2023H96.6096V4.44347H106.115V0.555176Z" fill="#1F1F1F"/>
<path d="M50.4965 19.2023V0.555176H46.2196L32.5943 14.1345V0.555176H28.2402V19.2023H32.5172L46.1425 5.62297V19.2023H50.4965Z" fill="#1F1F1F"/>
<path d="M137.489 18.1275C139.397 19.2063 142.081 19.7397 145.69 19.7575H145.886C151.418 19.7575 157.767 19.0581 157.767 13.6208C157.767 11.7893 156.853 10.4557 154.975 9.54287L154.588 9.35519L154.935 9.10228C156.194 8.18553 156.833 7.06134 156.833 5.75931C156.833 3.68281 155.891 2.21679 153.952 1.28227C152.164 0.418859 149.525 0 145.886 0H145.872C142.169 0 139.426 0.533453 137.487 1.63C135.27 2.88262 134.158 4.84256 134.093 7.61456H139.042C139.2 4.49087 142.262 3.99103 145.624 3.96928L145.884 3.96731C150.135 3.97719 152.03 4.28934 152.03 6.11694C152.03 7.9445 149.53 8.20331 147.651 8.20331H143.99V11.5186H148.224C150.516 11.5186 152.857 11.7478 152.857 13.4549C152.857 15.1619 150.968 15.7902 145.884 15.7902H145.866C142.408 15.7902 139.202 15.3417 139.042 12.143H134.093C134.158 14.915 135.268 16.8729 137.487 18.1275H137.489Z" fill="#1F1F1F"/>
</g>
<defs>
<clipPath id="clip0_67_125">
<rect width="158" height="20" fill="white"/>
</clipPath>
</defs>
</svg>
