<svg width="20" height="20" viewBox="0 0 20 20" fill="none" xmlns="http://www.w3.org/2000/svg">
<g clip-path="url(#clip0_73_7068)">
<path d="M9.99979 14.1667C13.0515 14.1667 15.7206 15.4792 17.1723 17.4376L15.6373 18.1634C14.4556 16.7634 12.3723 15.8334 9.99979 15.8334C7.62729 15.8334 5.54396 16.7634 4.36229 18.1634L2.82812 17.4367C4.27979 15.4784 6.94812 14.1667 9.99979 14.1667ZM9.99979 1.66675C11.1049 1.66675 12.1647 2.10573 12.9461 2.88714C13.7275 3.66854 14.1665 4.72835 14.1665 5.83342V8.33342C14.1664 9.40714 13.7518 10.4394 13.0092 11.2149C12.2666 11.9904 11.2533 12.4493 10.1806 12.4959L9.99979 12.5001C8.89472 12.5001 7.83491 12.0611 7.05351 11.2797C6.27211 10.4983 5.83312 9.43848 5.83312 8.33342V5.83342C5.83319 4.7597 6.24774 3.72745 6.99034 2.95193C7.73294 2.17642 8.74625 1.71751 9.81896 1.67091L9.99979 1.66675ZM9.99979 3.33341C9.36212 3.33338 8.74853 3.57702 8.28457 4.01448C7.82062 4.45195 7.54137 5.05017 7.50396 5.68675L7.49979 5.83342V8.33342C7.49916 8.98417 7.75231 9.60952 8.20543 10.0766C8.65856 10.5437 9.27595 10.8157 9.92643 10.8347C10.5769 10.8538 11.2092 10.6186 11.6889 10.1789C12.1687 9.73918 12.4581 9.12975 12.4956 8.48008L12.4998 8.33342V5.83342C12.4998 5.17037 12.2364 4.53449 11.7676 4.06565C11.2987 3.59681 10.6628 3.33341 9.99979 3.33341Z" fill="#1F1F1F"/>
</g>
<defs>
<clipPath id="clip0_73_7068">
<rect width="20" height="20" fill="white"/>
</clipPath>
</defs>
</svg>
